<svg xmlns="http://www.w3.org/2000/svg" width="105" height="79.753" viewBox="0 0 105 79.753">
  <g id="Group_3151" data-name="Group 3151" transform="translate(-72 -670.907)">
    <path id="Path_3433" data-name="Path 3433" d="M236.473,118.947H237l49.063,17.712a1.294,1.294,0,0,1,.709,1.771l-7.085,9.919H193.432l-6.376-9.742a1.376,1.376,0,0,1,.531-1.771L236.3,118.77c-.175.354,0,.177.175.177h0Zm.175,8.325a8.5,8.5,0,1,0,0,17,8.468,8.468,0,0,0,8.324-8.5,8.355,8.355,0,0,0-8.324-8.5Zm0,2.3a5.972,5.972,0,0,1,6.022,6.022,6.111,6.111,0,0,1-12.221,0,6.362,6.362,0,0,1,6.2-6.022ZM278.8,156.739v9.21H194.316v-9.21Zm0,17.068a9.242,9.242,0,0,1-1.063,7.085,33.834,33.834,0,0,1-7.971,7.971c-6.908,4.782-16.827,8.5-26.037,8.5H227.97c-7.97,0-17-3.365-24.089-7.97a26.271,26.271,0,0,1-7.97-7.971,9.864,9.864,0,0,1-1.949-7.793H278.8v.177Z" transform="translate(-114.914 552.138)" fill="#12123c"/>
    <g id="Ellipse_6" data-name="Ellipse 6" transform="translate(132 705.661)" fill="#449c50" stroke="#fff" stroke-width="2">
      <circle cx="22.5" cy="22.5" r="22.5" stroke="none"/>
      <circle cx="22.5" cy="22.5" r="21.5" fill="none"/>
    </g>
    <g id="Group_1458" data-name="Group 1458" transform="translate(143.5 717.475)">
      <path id="Path_426" data-name="Path 426" d="M25.093,7.637H23.4a.613.613,0,0,1-.6-.6V4.3a.613.613,0,0,1,.6-.6h1.691a.613.613,0,0,1,.6.6V7.035A.6.6,0,0,1,25.093,7.637Z" transform="translate(-8.396 -3.7)" fill="#fff"/>
      <path id="Path_427" data-name="Path 427" d="M66.993,7.637H65.3a.613.613,0,0,1-.6-.6V4.3a.613.613,0,0,1,.6-.6h1.691a.613.613,0,0,1,.6.6V7.035A.613.613,0,0,1,66.993,7.637Z" transform="translate(-59.999 -3.7)" fill="#fff"/>
      <path id="Path_3435" data-name="Path 3435" d="M66.993,6.86H65.3a.563.563,0,0,1-.6-.483V4.183a.563.563,0,0,1,.6-.483h1.691a.563.563,0,0,1,.6.483V6.377A.563.563,0,0,1,66.993,6.86Z" transform="translate(-59.999 11.061)" fill="#fff"/>
      <path id="Path_3442" data-name="Path 3442" d="M66.993,6.86H65.3a.563.563,0,0,1-.6-.483V4.183a.563.563,0,0,1,.6-.483h1.691a.563.563,0,0,1,.6.483V6.377A.563.563,0,0,1,66.993,6.86Z" transform="translate(-59.999 6.901)" fill="#fff"/>
      <path id="Path_3436" data-name="Path 3436" d="M66.993,6.86H65.3a.563.563,0,0,1-.6-.483V4.183a.563.563,0,0,1,.6-.483h1.691a.563.563,0,0,1,.6.483V6.377A.563.563,0,0,1,66.993,6.86Z" transform="translate(-55.148 11.061)" fill="#fff"/>
      <path id="Path_3441" data-name="Path 3441" d="M66.993,6.86H65.3a.563.563,0,0,1-.6-.483V4.183a.563.563,0,0,1,.6-.483h1.691a.563.563,0,0,1,.6.483V6.377A.563.563,0,0,1,66.993,6.86Z" transform="translate(-55.148 6.901)" fill="#fff"/>
      <path id="Path_3439" data-name="Path 3439" d="M66.993,6.86H65.3a.563.563,0,0,1-.6-.483V4.183a.563.563,0,0,1,.6-.483h1.691a.563.563,0,0,1,.6.483V6.377A.563.563,0,0,1,66.993,6.86Z" transform="translate(-50.296 11.061)" fill="#fff"/>
      <path id="Path_3440" data-name="Path 3440" d="M66.993,6.86H65.3a.563.563,0,0,1-.6-.483V4.183a.563.563,0,0,1,.6-.483h1.691a.563.563,0,0,1,.6.483V6.377A.563.563,0,0,1,66.993,6.86Z" transform="translate(-50.296 6.901)" fill="#fff"/>
      <path id="Path_428" data-name="Path 428" d="M5.673,12.3h.371v1.343A1.734,1.734,0,0,0,7.78,15.38H9.471a1.734,1.734,0,0,0,1.737-1.737V12.3h4.562v1.343a1.734,1.734,0,0,0,1.737,1.737H19.2a1.734,1.734,0,0,0,1.737-1.737V12.3H21.3a3.182,3.182,0,0,1,3.2,3.173V28.6a3.192,3.192,0,0,1-3.173,3.173H5.673A3.192,3.192,0,0,1,2.5,28.6V15.473A3.177,3.177,0,0,1,5.673,12.3ZM4.607,28.58a1.078,1.078,0,0,0,1.065,1.065H21.327a1.078,1.078,0,0,0,1.065-1.065V18.089H4.607Z" transform="translate(-2.5 -10.308)" fill="#fff"/>
    </g>
  </g>
</svg>
