<svg xmlns="http://www.w3.org/2000/svg" width="105" height="79.753" viewBox="0 0 105 79.753">
  <g id="Group_3152" data-name="Group 3152" transform="translate(-303 -665.205)">
    <path id="Path_3443" data-name="Path 3443" d="M236.473,118.947H237l49.063,17.712a1.294,1.294,0,0,1,.709,1.771l-7.085,9.919H193.432l-6.376-9.742a1.376,1.376,0,0,1,.531-1.771L236.3,118.77c-.175.354,0,.177.175.177h0Zm.175,8.325a8.5,8.5,0,1,0,0,17,8.468,8.468,0,0,0,8.324-8.5,8.355,8.355,0,0,0-8.324-8.5Zm0,2.3a5.972,5.972,0,0,1,6.022,6.022,6.111,6.111,0,0,1-12.221,0,6.362,6.362,0,0,1,6.2-6.022ZM278.8,156.739v9.21H194.316v-9.21Zm0,17.068a9.242,9.242,0,0,1-1.063,7.085,33.834,33.834,0,0,1-7.971,7.971c-6.908,4.782-16.827,8.5-26.037,8.5H227.97c-7.97,0-17-3.365-24.089-7.97a26.271,26.271,0,0,1-7.97-7.971,9.864,9.864,0,0,1-1.949-7.793H278.8v.177Z" transform="translate(116.086 546.435)" fill="#12123c"/>
    <g id="Path_3444" data-name="Path 3444" transform="translate(363 699.958)" fill="#f36e32">
      <path d="M 22.5 44 C 19.59708023071289 44 16.78152084350586 43.43167877197266 14.13154029846191 42.31082916259766 C 11.57145023345947 41.22800727026367 9.272049903869629 39.67763900756836 7.297200202941895 37.70280075073242 C 5.322360038757324 35.72795104980469 3.771990060806274 33.42855072021484 2.689169883728027 30.86845970153809 C 1.568320035934448 28.21847915649414 1 25.40291976928711 1 22.5 C 1 19.59708023071289 1.568320035934448 16.78152084350586 2.689169883728027 14.13154029846191 C 3.771990060806274 11.57145023345947 5.322360038757324 9.272049903869629 7.297200202941895 7.297200202941895 C 9.272049903869629 5.322360038757324 11.57145023345947 3.771990060806274 14.13154029846191 2.689169883728027 C 16.78152084350586 1.568320035934448 19.59708023071289 1 22.5 1 C 25.40291976928711 1 28.21847915649414 1.568320035934448 30.86845970153809 2.689169883728027 C 33.42855072021484 3.771990060806274 35.72795104980469 5.322360038757324 37.70280075073242 7.297200202941895 C 39.67763900756836 9.272049903869629 41.22800727026367 11.57145023345947 42.31082916259766 14.13154029846191 C 43.43167877197266 16.78152084350586 44 19.59708023071289 44 22.5 C 44 25.40291976928711 43.43167877197266 28.21847915649414 42.31082916259766 30.86845970153809 C 41.22800727026367 33.42855072021484 39.67763900756836 35.72795104980469 37.70280075073242 37.70280075073242 C 35.72795104980469 39.67763900756836 33.42855072021484 41.22800727026367 30.86845970153809 42.31082916259766 C 28.21847915649414 43.43167877197266 25.40291976928711 44 22.5 44 Z" stroke="none"/>
      <path d="M 22.5 2 C 19.73163986206055 2 17.04714012145996 2.541740417480469 14.52108955383301 3.61016845703125 C 12.0802001953125 4.642578125 9.887641906738281 6.120979309082031 8.004310607910156 8.004310607910156 C 6.120979309082031 9.887641906738281 4.642578125 12.0802001953125 3.61016845703125 14.52108955383301 C 2.541740417480469 17.04714012145996 2 19.73163986206055 2 22.5 C 2 25.26836013793945 2.541740417480469 27.95285987854004 3.61016845703125 30.47891044616699 C 4.642578125 32.9197998046875 6.120979309082031 35.11235809326172 8.004310607910156 36.99568939208984 C 9.887641906738281 38.87902069091797 12.0802001953125 40.357421875 14.52108955383301 41.38983154296875 C 17.04714012145996 42.45825958251953 19.73163986206055 43 22.5 43 C 25.26836013793945 43 27.95285987854004 42.45825958251953 30.47891044616699 41.38983154296875 C 32.9197998046875 40.357421875 35.11235809326172 38.87902069091797 36.99568939208984 36.99568939208984 C 38.87902069091797 35.11235809326172 40.357421875 32.9197998046875 41.38983154296875 30.47891044616699 C 42.45825958251953 27.95285987854004 43 25.26836013793945 43 22.5 C 43 19.73163986206055 42.45825958251953 17.04714012145996 41.38983154296875 14.52108955383301 C 40.357421875 12.0802001953125 38.87902069091797 9.887641906738281 36.99568939208984 8.004310607910156 C 35.11235809326172 6.120979309082031 32.9197998046875 4.642578125 30.47891044616699 3.61016845703125 C 27.95285987854004 2.541740417480469 25.26836013793945 2 22.5 2 M 22.5 0 C 34.92641067504883 0 45 10.07358932495117 45 22.5 C 45 34.92641067504883 34.92641067504883 45 22.5 45 C 10.07358932495117 45 0 34.92641067504883 0 22.5 C 0 10.07358932495117 10.07358932495117 0 22.5 0 Z" stroke="none" fill="#fff"/>
    </g>
    <g id="Group_2810" data-name="Group 2810" transform="translate(374.5 711.773)">
      <path id="Path_426" data-name="Path 426" d="M25.093,7.637H23.4a.613.613,0,0,1-.6-.6V4.3a.613.613,0,0,1,.6-.6h1.691a.613.613,0,0,1,.6.6V7.035A.6.6,0,0,1,25.093,7.637Z" transform="translate(-8.396 -3.7)" fill="#fff"/>
      <path id="Path_427" data-name="Path 427" d="M66.993,7.637H65.3a.613.613,0,0,1-.6-.6V4.3a.613.613,0,0,1,.6-.6h1.691a.613.613,0,0,1,.6.6V7.035A.613.613,0,0,1,66.993,7.637Z" transform="translate(-59.999 -3.7)" fill="#fff"/>
      <path id="Path_3435" data-name="Path 3435" d="M66.993,6.86H65.3a.563.563,0,0,1-.6-.483V4.183a.563.563,0,0,1,.6-.483h1.691a.563.563,0,0,1,.6.483V6.377A.563.563,0,0,1,66.993,6.86Z" transform="translate(-59.999 11.061)" fill="#fff"/>
      <path id="Path_3442" data-name="Path 3442" d="M66.993,6.86H65.3a.563.563,0,0,1-.6-.483V4.183a.563.563,0,0,1,.6-.483h1.691a.563.563,0,0,1,.6.483V6.377A.563.563,0,0,1,66.993,6.86Z" transform="translate(-59.999 6.901)" fill="#fff"/>
      <path id="Path_3436" data-name="Path 3436" d="M66.993,6.86H65.3a.563.563,0,0,1-.6-.483V4.183a.563.563,0,0,1,.6-.483h1.691a.563.563,0,0,1,.6.483V6.377A.563.563,0,0,1,66.993,6.86Z" transform="translate(-55.148 11.061)" fill="#fff"/>
      <path id="Path_3441" data-name="Path 3441" d="M66.993,6.86H65.3a.563.563,0,0,1-.6-.483V4.183a.563.563,0,0,1,.6-.483h1.691a.563.563,0,0,1,.6.483V6.377A.563.563,0,0,1,66.993,6.86Z" transform="translate(-55.148 6.901)" fill="#fff"/>
      <path id="Path_3439" data-name="Path 3439" d="M66.993,6.86H65.3a.563.563,0,0,1-.6-.483V4.183a.563.563,0,0,1,.6-.483h1.691a.563.563,0,0,1,.6.483V6.377A.563.563,0,0,1,66.993,6.86Z" transform="translate(-50.296 11.061)" fill="#fff"/>
      <path id="Path_3440" data-name="Path 3440" d="M66.993,6.86H65.3a.563.563,0,0,1-.6-.483V4.183a.563.563,0,0,1,.6-.483h1.691a.563.563,0,0,1,.6.483V6.377A.563.563,0,0,1,66.993,6.86Z" transform="translate(-50.296 6.901)" fill="#fff"/>
      <path id="Path_428" data-name="Path 428" d="M5.673,12.3h.371v1.343A1.734,1.734,0,0,0,7.78,15.38H9.471a1.734,1.734,0,0,0,1.737-1.737V12.3h4.562v1.343a1.734,1.734,0,0,0,1.737,1.737H19.2a1.734,1.734,0,0,0,1.737-1.737V12.3H21.3a3.182,3.182,0,0,1,3.2,3.173V28.6a3.192,3.192,0,0,1-3.173,3.173H5.673A3.192,3.192,0,0,1,2.5,28.6V15.473A3.177,3.177,0,0,1,5.673,12.3ZM4.607,28.58a1.078,1.078,0,0,0,1.065,1.065H21.327a1.078,1.078,0,0,0,1.065-1.065V18.089H4.607Z" transform="translate(-2.5 -10.308)" fill="#fff"/>
    </g>
  </g>
</svg>
