<svg xmlns="http://www.w3.org/2000/svg" width="119.998" height="100.999" viewBox="0 0 119.998 100.999">
  <g id="Group_3148" data-name="Group 3148" transform="translate(-57.002 -249.001)">
    <g id="Group_2282" data-name="Group 2282" transform="translate(60 249.001)">
      <g id="Group_1844" data-name="Group 1844">
        <path id="Path_3201" data-name="Path 3201" d="M234.922,335h41.694c15.125,0,23.929,8.789,23.929,23.844v51c0,15.308-8.8,23.9-23.929,23.9H234.922c-15.366,0-23.922-8.591-23.922-23.9v-51C211,343.789,219.556,335,234.922,335Z" transform="translate(-200.544 -335)" fill="#12123c"/>
        <path id="Path_3202" data-name="Path 3202" d="M255.29,339.651v.046a3.617,3.617,0,1,1,0,7.235H241.424a3.64,3.64,0,0,1,0-7.281ZM218.92,367.9h36.37a3.621,3.621,0,0,0,0-7.243H218.92a3.621,3.621,0,0,0,0,7.243Z" transform="translate(-181.252 -316.085)" fill="#f5f5f8" fill-rule="evenodd"/>
        <g id="Group_1843" data-name="Group 1843" transform="translate(0 53.982)">
          <g id="Path_3203" data-name="Path 3203" transform="translate(-259.879 -386.237)" fill="#12123c" stroke-linecap="square">
            <path d="M 296.0010070800781 431.9995727539062 C 296.0009765625 431.9995727539062 296.0010375976562 431.9995727539062 296.0009765625 431.9995727539062 L 295.9770202636719 431.9994506835938 L 287.2369995117188 431.8963317871094 L 287.2335510253906 431.8962707519531 L 287.2300720214844 431.8962097167969 C 285.3287963867188 431.8606262207031 283.5615234375 430.9754028320312 282.3814392089844 429.4675598144531 L 282.3785095214844 429.4638366699219 L 282.3756408691406 429.4600830078125 L 266.3651123046875 408.599365234375 L 266.3628234863281 408.5963439941406 L 266.3605346679688 408.5933227539062 C 265.7847290039062 407.8311767578125 265.9197387695312 406.728515625 266.6614990234375 406.1353149414062 L 280.1610717773438 395.2304077148438 C 280.470703125 394.9768981933594 280.861083984375 394.8373413085938 281.2610778808594 394.8373413085938 C 281.8021240234375 394.8373413085938 282.3205261230469 395.0941162109375 282.6491394042969 395.5244750976562 L 282.6491394042969 395.5244750976562 L 298.7334899902344 416.4768981933594 C 299.9092407226562 417.96142578125 300.3446044921875 419.9004211425781 299.9279174804688 421.7982788085938 L 299.9268798828125 421.8029174804688 L 299.9258117675781 421.8075561523438 L 297.9428405761719 430.44482421875 C 297.7327880859375 431.3601684570312 296.9342041015625 431.9995727539062 296.0010070800781 431.9995727539062 Z" stroke="none"/>
            <path d="M 281.2610778808594 395.8373413085938 C 281.0961608886719 395.8373413085938 280.9302368164062 395.8922119140625 280.7925109863281 396.005859375 L 267.2860717773438 406.9162902832031 C 266.9604187011719 407.1767272949219 266.90625 407.65673828125 267.1584167480469 407.9905090332031 L 283.1689147949219 428.8512268066406 C 284.1752319335938 430.1370239257812 285.6589965820312 430.8666381835938 287.2488098144531 430.8963928222656 L 295.9891052246094 430.99951171875 C 295.9930725097656 430.9995727539062 295.9970397949219 430.9995727539062 296.0010070800781 430.9995727539062 C 296.4598083496094 430.9995727539062 296.8633117675781 430.6781921386719 296.9682006835938 430.2210693359375 L 298.951171875 421.5838012695312 C 299.2984313964844 420.0022277832031 298.951171875 418.3584899902344 297.9447326660156 417.0916442871094 L 281.8558959960938 396.1333923339844 C 281.7088317871094 395.9393310546875 281.4859008789062 395.8373413085938 281.2610778808594 395.8373413085938 M 281.2610473632812 393.8373413085938 C 282.1125793457031 393.8373413085938 282.9282836914062 394.241455078125 283.4448547363281 394.9188232421875 L 299.5220031738281 415.86181640625 C 300.8815612792969 417.5819396972656 301.3854675292969 419.8226928710938 300.9046325683594 422.0126953125 L 300.9004516601562 422.0313415527344 L 298.91748046875 430.6686096191406 C 298.6025390625 432.0409545898438 297.4032287597656 432.9995727539062 296.0010070800781 432.9995727539062 L 295.9638671875 432.9993591308594 L 287.2113647460938 432.8960571289062 C 285.0078430175781 432.8547973632812 282.9603576660156 431.8298034667969 281.5939331054688 430.0838623046875 L 281.5823364257812 430.0689086914062 L 265.5626525878906 409.1961364746094 C 265.1283264160156 408.6212463378906 264.9352722167969 407.9100341796875 265.0191040039062 407.1935119628906 C 265.1041564941406 406.4664611816406 265.463623046875 405.8151245117188 266.0315856933594 405.358642578125 L 279.5296630859375 394.4549560546875 C 280.0172119140625 394.0566101074219 280.6315307617188 393.8373413085938 281.2610473632812 393.8373413085938 Z" stroke="none" fill="#eeeef2"/>
          </g>
          <g id="Path_3204" data-name="Path 3204" transform="translate(-276.144 -393)" fill="#12123c" stroke-linecap="square">
            <path d="M 279.7012939453125 410.7161560058594 C 279.7012634277344 410.7161560058594 279.7012329101562 410.7161560058594 279.701171875 410.7161560058594 C 279.1649169921875 410.7161254882812 278.6659240722656 410.4737548828125 278.3311157226562 410.0509643554688 L 275.7264404296875 406.8040771484375 L 275.7221984863281 406.7987670898438 L 275.718017578125 406.7934265136719 C 274.3352355957031 405.02099609375 273.8486938476562 402.9685668945312 274.310791015625 400.8580017089844 C 274.7032165527344 398.9806823730469 275.8462219238281 397.2190856933594 277.5296936035156 395.8968200683594 L 281.2054748535156 392.9667663574219 C 282.8219299316406 391.6798400878906 284.6474914550781 390.9997863769531 286.4852600097656 390.9997863769531 C 288.6944580078125 390.9997863769531 290.6781005859375 391.9857788085938 292.0718994140625 393.7764892578125 L 294.5733337402344 396.8839416503906 L 294.574951171875 396.8859558105469 L 294.5765380859375 396.8879699707031 C 295.1805725097656 397.646240234375 295.0651550292969 398.759765625 294.3192138671875 399.3701782226562 L 292.2532958984375 401.0448303222656 C 288.9077758789062 403.7568359375 283.3084106445312 408.2958679199219 280.8001403808594 410.3248901367188 C 280.4923095703125 410.5762023925781 280.100830078125 410.7161560058594 279.7012939453125 410.7161560058594 Z" stroke="none"/>
            <path d="M 279.7012329101562 409.7161560058594 C 279.8660583496094 409.7161865234375 280.0320434570312 409.6610412597656 280.1712036132812 409.5474243164062 C 283.3370056152344 406.9865112304688 291.4398498535156 400.4166564941406 293.6859130859375 398.5962829589844 C 294.0140991210938 398.3277282714844 294.0602722167969 397.8448181152344 293.7943725585938 397.5110168457031 L 291.2877502441406 394.3971252441406 C 289.0064392089844 391.4592895507812 285.0351867675781 391.1959228515625 281.8287963867188 393.7487487792969 L 278.1503295898438 396.6809387207031 C 276.6393432617188 397.8666687011719 275.6302490234375 399.4264831542969 275.28857421875 401.0676879882812 C 274.8923645019531 402.8715209960938 275.3128662109375 404.6483764648438 276.5064697265625 406.1783142089844 L 279.1134033203125 409.4280090332031 C 279.2623596191406 409.617431640625 279.4807434082031 409.7161560058594 279.7012329101562 409.7161560058594 M 279.7013244628906 411.7161560058594 L 279.7012634277344 411.7161560058594 C 278.8582763671875 411.7161254882812 278.074462890625 411.3363952636719 277.5488586425781 410.6738891601562 L 274.9295959472656 407.4085388183594 C 273.3815002441406 405.4242248535156 272.8146057128906 403.0242614746094 273.3327026367188 400.6497802734375 C 273.7738037109375 398.5446166992188 275.0438537597656 396.5784606933594 276.909912109375 395.112060546875 L 280.5821533203125 392.184814453125 C 282.3779296875 390.7550964355469 284.4188537597656 389.9997863769531 286.4852600097656 389.9997863769531 C 287.7213439941406 389.9997863769531 288.9013671875 390.2711181640625 289.9925842285156 390.8062744140625 C 291.1005554199219 391.349609375 292.0637512207031 392.1399230957031 292.8557434082031 393.1554870605469 L 295.3587036132812 396.264892578125 C 296.3018188476562 397.4488220214844 296.1195983886719 399.1890258789062 294.9525146484375 400.1440734863281 L 294.9451904296875 400.1500549316406 L 292.8830261230469 401.8216552734375 C 289.53857421875 404.5327758789062 283.9418640136719 409.0696716308594 281.4318542480469 411.10009765625 C 280.9432067871094 411.4974365234375 280.328857421875 411.7161560058594 279.7013244628906 411.7161560058594 Z" stroke="none" fill="#eeeef2"/>
          </g>
        </g>
      </g>
    </g>
    <g id="Ellipse_92" data-name="Ellipse 92" transform="translate(132 304)" fill="#449c50" stroke="#fff" stroke-width="2">
      <circle cx="22.5" cy="22.5" r="22.5" stroke="none"/>
      <circle cx="22.5" cy="22.5" r="21.5" fill="none"/>
    </g>
    <text id="_" data-name="+" transform="translate(170 339)" fill="#fff" font-size="45" font-family="SegoeUI-Bold, Segoe UI" font-weight="700" letter-spacing="0.008em"><tspan x="-31.816" y="0">+</tspan></text>
  </g>
</svg>
