<svg xmlns="http://www.w3.org/2000/svg" width="114.758" height="88.252" viewBox="0 0 114.758 88.252">
  <g id="Group_3146" data-name="Group 3146" transform="translate(-534.242 -252.748)">
    <path id="Path_3430" data-name="Path 3430" d="M13.538,16.959H28.923V13.47C28.923,8.132,34.544,3,40.462,3H63.538c5.917,0,11.538,5.132,11.538,10.47v3.49H90.462c5.917,0,11.538,1.642,11.538,6.98V44.878c0,5.337-5.621,10.47-11.538,10.47H67.385V44.878c0-3.558-3.747-6.98-7.692-6.98H44.308c-3.945,0-7.692,3.421-7.692,6.98v10.47H13.538C7.621,55.348,2,50.215,2,44.878V23.939C2,18.6,7.621,16.959,13.538,16.959Zm53.846-3.49a3.894,3.894,0,0,0-3.846-3.49H40.462a3.894,3.894,0,0,0-3.846,3.49v3.49H67.385ZM36.615,58.837H9.692V76.287c0,5.337,5.621,10.47,11.538,10.47H82.769c5.917,0,11.538-5.132,11.538-10.47V58.837H67.385v6.98c0,3.558-3.747,3.49-7.692,3.49H44.308c-3.945,0-7.692.068-7.692-3.49Zm7.692,6.98c-1.972,0-3.846,1.779-3.846,0V44.878a3.894,3.894,0,0,1,3.846-3.49H59.692a3.894,3.894,0,0,1,3.846,3.49V65.817c0,1.779-1.874,0-3.846,0ZM55.846,48.368H48.154V62.327h7.692Z" transform="translate(532.242 249.748)" fill="#12123c"/>
    <g id="Ellipse_1" data-name="Ellipse 1" transform="translate(604 295)" fill="#449c50" stroke="#fff" stroke-width="2">
      <circle cx="22.5" cy="22.5" r="22.5" stroke="none"/>
      <circle cx="22.5" cy="22.5" r="21.5" fill="none"/>
    </g>
    <text id="_" data-name="+" transform="translate(642 330)" fill="#fff" font-size="45" font-family="SegoeUI-Bold, Segoe UI" font-weight="700" letter-spacing="0.008em"><tspan x="-31.816" y="0">+</tspan></text>
  </g>
</svg>
