<svg id="Group_40557" data-name="Group 40557" xmlns="http://www.w3.org/2000/svg" width="20.017" height="20.861" viewBox="0 0 20.017 20.861">
  <g id="Group_40556" data-name="Group 40556">
    <path id="Path_814" data-name="Path 814" d="M29.411,10.7a.611.611,0,0,1,0-.54l.778-1.592a1.811,1.811,0,0,0-.781-2.4l-1.565-.83a.611.611,0,0,1-.318-.437L27.219,3.15a1.811,1.811,0,0,0-2.046-1.486l-1.754.248a.611.611,0,0,1-.514-.167L21.632.513a1.811,1.811,0,0,0-2.529,0L17.83,1.744a.612.612,0,0,1-.514.167l-1.754-.248A1.811,1.811,0,0,0,13.516,3.15L13.21,4.895a.611.611,0,0,1-.318.437l-1.565.83a1.811,1.811,0,0,0-.781,2.4l.778,1.592a.611.611,0,0,1,0,.54l-.778,1.592a1.811,1.811,0,0,0,.781,2.4l1.565.83a.611.611,0,0,1,.318.437l.306,1.745a1.81,1.81,0,0,0,1.785,1.5,1.861,1.861,0,0,0,.261-.018l1.754-.248a.611.611,0,0,1,.514.167L19.1,20.345a1.811,1.811,0,0,0,2.529,0l1.273-1.232a.612.612,0,0,1,.514-.167l1.754.248a1.811,1.811,0,0,0,2.046-1.486l.306-1.745a.611.611,0,0,1,.318-.437l1.565-.83a1.811,1.811,0,0,0,.781-2.4ZM17.961,5.014A2.206,2.206,0,1,1,15.755,7.22,2.208,2.208,0,0,1,17.961,5.014Zm-1.139,9.81a.6.6,0,0,1-.851-.851l7.941-7.941a.6.6,0,1,1,.851.851Zm5.951,1.019a2.206,2.206,0,1,1,2.206-2.206A2.208,2.208,0,0,1,22.774,15.843Z" transform="translate(-10.359 0.002)" fill="#43425d"/>
  </g>
</svg>
