<svg xmlns="http://www.w3.org/2000/svg" width="24" height="21.6" viewBox="0 0 24 21.6">
  <path id="Path_3400" data-name="Path 3400" d="M891.346,341.714A5.837,5.837,0,1,0,897.181,336,5.755,5.755,0,0,0,891.346,341.714ZM906,353.9c0-2.936-4.063-3.671-8.819-3.671-4.783,0-8.82.76-8.82,3.7s4.063,3.672,8.82,3.672C901.963,357.6,906,356.84,906,353.9Zm-17.007-12.081a7.635,7.635,0,0,0,1.364,4.375.213.213,0,0,1-.147.33,4.738,4.738,0,0,1-.671.062,4.82,4.82,0,1,1-.139-9.632,4.958,4.958,0,0,1,.982.1.184.184,0,0,1,.114.066.134.134,0,0,1-.023.149A7.7,7.7,0,0,0,888.993,341.819Zm-3.773,7.023a3.83,3.83,0,0,0-2.954,1.76,2.523,2.523,0,0,0,0,2.254c.637,1.349,2.694,1.782,3.494,1.894a.249.249,0,0,0,.281-.278c-.409-3.734,2.84-5.506,3.68-5.912a.064.064,0,0,0,.04-.066.048.048,0,0,0-.044-.034A22.062,22.062,0,0,0,885.22,348.842Z" transform="translate(-882 -336)" fill="#f36e32" fill-rule="evenodd"/>
</svg>
