<svg xmlns="http://www.w3.org/2000/svg" width="21.265" height="23.997" viewBox="0 0 21.265 23.997">
  <g id="Group_2318" data-name="Group 2318" transform="translate(0 0)">
    <path id="Path_3403" data-name="Path 3403" d="M44.74,7.879a6.757,6.757,0,0,0-2.459.58,3.011,3.011,0,0,0-1.8,3.171c.032.3.094.592.148.886.065.351.129.688-.268.917a.5.5,0,0,0-.212.351,2.839,2.839,0,0,0,.7,2.641,1.565,1.565,0,0,1,.441.759,4.181,4.181,0,0,0,2.654,2.682,2.822,2.822,0,0,0,2.067-.051,4.063,4.063,0,0,0,2.255-2.052,7.883,7.883,0,0,1,1.025-1.744,2.939,2.939,0,0,0,.366-2.237.338.338,0,0,0-.119-.229c-.554-.354-.391-.845-.3-1.348.429-2.356-.826-3.919-3.388-4.234C45.479,7.925,45.109,7.909,44.74,7.879Zm.881,14.791c-.021.062-.06.061-.108.061-.394,0-.789,0-1.183,0a.107.107,0,0,1-.122-.088c-.181-.516-.368-1.031-.552-1.546-.011-.03-.033-.058-.016-.1h2.543a.214.214,0,0,1,0,.042C45.994,21.585,45.806,22.127,45.621,22.67Z" transform="translate(-34.285 -7.88)" fill="#8a8aa5"/>
    <path id="Path_3404" data-name="Path 3404" d="M25.981,49.078c.029-.743-.043.945,0,.2.126-2.187.34-2.959.5-5.144a3.109,3.109,0,0,1,1.639-2.669,21.356,21.356,0,0,1,4.2-1.564,5.06,5.06,0,0,1,1.516-.23h.658a.068.068,0,0,1,.068.066.883.883,0,0,0,.073.325l.143.4c.133.369.27.75.4,1.125l.011.031a.067.067,0,0,1,0,.05.872.872,0,0,0-.052.18c-.153.881-.4,2.161-.615,3.29-.13.68-.253,1.323-.34,1.792-.047.254-.08.441-.1.573-.013.079-.022.141-.028.188a.806.806,0,0,0,.188.664c.48.533.97,1.079,1.444,1.608l.287.32a.858.858,0,0,0,.638.286h0a.858.858,0,0,0,.639-.287l.3-.34c.467-.524,1.174-1.317,1.4-1.569a.773.773,0,0,0,.2-.585c0-.03-.006-.064-.011-.106-.008-.058-.019-.136-.036-.239-.029-.175-.072-.422-.133-.755-.111-.612-.265-1.427-.413-2.216-.192-1.018-.39-2.071-.485-2.621a.874.874,0,0,0-.048-.172.067.067,0,0,1,0-.048l.008-.022c.128-.376.26-.759.387-1.128l.171-.5a.818.818,0,0,0,.044-.238.068.068,0,0,1,.068-.062h.532a5.049,5.049,0,0,1,1.733.284l3.555,1.245a3.1,3.1,0,0,1,2.155,2.919c.141,1.715.426,3.433.533,5.15.075,1.2-.02-1.451,0-.252.017,1-.436,1.425-1.421,1.471-.052,0-12.365.006-18.469,0A1.235,1.235,0,0,1,25.981,49.078Z" transform="translate(-25.967 -26.571)" fill="#8a8aa5"/>
    <path id="Path_3409" data-name="Path 3409" d="M50.645,41.389c-.021.062-.06.061-.108.061-.394,0-.789,0-1.183,0a.107.107,0,0,1-.122-.088c-.181-.516-.368-1.031-.552-1.546-.011-.03-.033-.058-.016-.1h2.543a.214.214,0,0,1,0,.042C51.017,40.3,50.83,40.846,50.645,41.389Z" transform="translate(-39.308 -26.6)" fill="#8a8aa5"/>
    <path id="Path_3411" data-name="Path 3411" d="M48.58,45.065h1.242a.1.1,0,0,1,.1.084c.242,1.4,1.11,5.835,1.068,5.882-.289.319-1.334,1.493-1.708,1.913a.093.093,0,0,1-.141,0c-.583-.651-1.156-1.292-1.732-1.93-.04-.045.74-3.908,1.081-5.865A.1.1,0,0,1,48.58,45.065Z" transform="translate(-38.572 -29.74)" fill="#8a8aa5"/>
  </g>
</svg>
