<svg xmlns="http://www.w3.org/2000/svg" width="22.822" height="22.83" viewBox="0 0 22.822 22.83">
  <path id="Subtraction_3" data-name="Subtraction 3" d="M5.23,22.823H21.68a1.141,1.141,0,1,0,0-2.281V5.51a5.6,5.6,0,0,0-1.443-4.059A5.553,5.553,0,0,0,16.192,0H6.629C3.141,0,1.141,2.01,1.141,5.51V20.532a1.141,1.141,0,1,0,0,2.281H4.6C4.793,22.82,5,22.823,5.23,22.823Zm6.181-9.135a3.423,3.423,0,0,1,3.423,3.422v3.422H7.988V17.11A3.423,3.423,0,0,1,11.411,13.688ZM9.129,9.126a1.141,1.141,0,1,1,0,2.281H7.988a1.141,1.141,0,1,1,0-2.281Zm5.705,0a1.141,1.141,0,1,1,0,2.281H13.693a1.141,1.141,0,1,1,0-2.281ZM9.129,4.563a1.141,1.141,0,1,1,0,2.281H7.988a1.141,1.141,0,1,1,0-2.281Zm5.705,0a1.141,1.141,0,1,1,0,2.281H13.693a1.141,1.141,0,1,1,0-2.281Z" transform="translate(0 0.007)" fill="#fff"/>
</svg>
