<svg xmlns="http://www.w3.org/2000/svg" width="41.807" height="45.96" viewBox="0 0 41.807 45.96">
  <g id="Group_4099" data-name="Group 4099" transform="translate(-874.958 -587.52)">
    <g id="guard" transform="translate(874.958 587.52)">
      <path id="Path_4153" data-name="Path 4153" d="M85.17,4.466a1.343,1.343,0,0,0-.951-1.732L73.447.041a1.305,1.305,0,0,0-.652,0L62.023,2.734a1.343,1.343,0,0,0-.951,1.732l2.1,6.306H83.068ZM75.814,6.733H70.428a1.346,1.346,0,0,1,0-2.693h5.386a1.346,1.346,0,1,1,0,2.693Z" transform="translate(-58.31 0)" fill="#006996"/>
      <path id="Path_4154" data-name="Path 4154" d="M127.376,152.7h5.386a4.048,4.048,0,0,0,3.809-2.693h-13A4.048,4.048,0,0,0,127.376,152.7Z" transform="translate(-115.258 -136.542)" fill="#006996"/>
      <path id="Path_4155" data-name="Path 4155" d="M44.469,338.841a4.009,4.009,0,0,1-1.509-.938l-2.693-2.693a4.015,4.015,0,0,1-1.183-2.856,1.358,1.358,0,0,0-.534-1.065c-.111-.083-.192-.195-.3-.281h-.513A6.732,6.732,0,0,0,31,337.739v9.515H44.469Zm-5.386,2.938H36.39a1.346,1.346,0,0,1,0-2.693h2.693a1.346,1.346,0,0,1,0,2.693Z" transform="translate(-31.004 -301.294)" fill="#006996"/>
      <path id="Path_4156" data-name="Path 4156" d="M67.469,164.38a4.042,4.042,0,0,1,1.613,3.22,1.345,1.345,0,0,0,.395.952l2.693,2.693a1.346,1.346,0,0,0,1.9,0l2.693-2.693a1.338,1.338,0,0,0,.39-.973,4.006,4.006,0,0,1,1.6-3.182,9.567,9.567,0,0,0,3.661-9h.132a2.693,2.693,0,0,0,0-5.386h-.136a6.743,6.743,0,0,1-6.6,5.386H70.429a6.743,6.743,0,0,1-6.6-5.386H63.7a2.693,2.693,0,0,0,0,5.386h.114A9.57,9.57,0,0,0,67.469,164.38Z" transform="translate(-58.311 -136.541)" fill="#006996"/>
      <path id="Path_4157" data-name="Path 4157" d="M220.265,343.289a4.015,4.015,0,0,1-1.183-2.856v-8.079a3.985,3.985,0,0,1,.188-1.154,6.7,6.7,0,0,0-1.535-.192h-.513c-.108.087-.188.2-.3.281a1.358,1.358,0,0,0-.534,1.065,4.014,4.014,0,0,1-1.183,2.856l-2.693,2.693a4.011,4.011,0,0,1-1.509.938v8.414h11.02a3.992,3.992,0,0,1-.248-1.346v-1.02Z" transform="translate(-194.845 -301.295)" fill="#006996"/>
    </g>
    <g id="remove" transform="translate(900.629 615.737)">
      <path id="Path_4158" data-name="Path 4158" d="M8.068,0a8.068,8.068,0,1,0,8.068,8.068A8.077,8.077,0,0,0,8.068,0Zm0,0" transform="translate(0)" fill="#ed212b"/>
      <path id="Path_4159" data-name="Path 4159" d="M161.61,160.66a.672.672,0,1,1-.951.951l-2.02-2.02-2.02,2.02a.672.672,0,0,1-.951-.951l2.02-2.02-2.02-2.02a.672.672,0,0,1,.951-.951l2.02,2.02,2.02-2.02a.672.672,0,0,1,.951.951l-2.02,2.02Zm0,0" transform="translate(-150.572 -150.572)" fill="#fafafa"/>
    </g>
  </g>
</svg>
