<svg id="guard_1_" data-name="guard (1)" xmlns="http://www.w3.org/2000/svg" width="44.954" height="44.954" viewBox="0 0 44.954 44.954">
  <path id="Path_4149" data-name="Path 4149" d="M91.848,203.22c9.545,0,13.144-2.209,14.482-4.062a4.263,4.263,0,0,0,.777-1.892c-.166-.3-.339-.606-.525-.9H78.107c-.192.3-.37.615-.541.929a4.376,4.376,0,0,0,.833,2.075c1.29,1.757,4.67,3.852,13.448,3.852Zm0,0" transform="translate(-69.867 -176.874)" fill="#84bc26"/>
  <path id="Path_4150" data-name="Path 4150" d="M89.741,231.851c-2.338,3.239-7.75,4.881-16.087,4.881-7.752,0-12.824-1.582-15.077-4.7-.13-.18-.244-.36-.349-.539a16.5,16.5,0,0,0-.861,5.241,16.784,16.784,0,0,0,33.566,0,16.494,16.494,0,0,0-.892-5.338c-.092.152-.191.3-.3.457ZM79.057,245.784a.99.99,0,0,1-1.2.713l-3.71-.92-3.709.92a.98.98,0,1,1-.479-1.9l3.949-.98a.992.992,0,0,1,.479,0l3.949.98a.978.978,0,0,1,.718,1.188Zm0,0" transform="translate(-51.674 -208.428)" fill="#006996"/>
  <path id="Path_4151" data-name="Path 4151" d="M22.477,0,0,10.22l1.565,4.658,5.349,2.653H37.083L43.4,14.845l1.554-4.625Zm.312,16.5a1,1,0,0,1-.625,0c-.675-.223-6.6-2.285-6.6-5.826a4.556,4.556,0,0,1,1.25-3.624.992.992,0,0,1,1.074-.223.98.98,0,0,1,.618.9.918.918,0,0,0,1.006.989c.911,0,1.975-.256,1.975-.979a.987.987,0,0,1,1.974,0c0,.723,1.063.979,1.975.979a.931.931,0,0,0,1.006-.989.98.98,0,0,1,.618-.9,1,1,0,0,1,1.074.223,4.555,4.555,0,0,1,1.251,3.624c0,3.542-5.923,5.6-6.6,5.826Zm0,0" fill="#006996"/>
</svg>
