<svg id="شعار_الهيئة_السعودية_للمدن_الصناعية_ومناطق_التقنية_PNG_SVG" data-name="شعار الهيئة السعودية للمدن الصناعية ومناطق التقنية – PNG – SVG" xmlns="http://www.w3.org/2000/svg" width="127.731" height="207.521" viewBox="0 0 127.731 207.521">
  <g id="Group_2653" data-name="Group 2653" transform="translate(15.874 189.462)">
    <path id="Path_3870" data-name="Path 3870" d="M265.1,653.58c-2.481,0-4.488-2.06-4.488-5.472s2.01-5.472,4.488-5.472,4.488,2.1,4.488,5.472-2.01,5.472-4.488,5.472m-.033-14.46c-5.031,0-9.107,3.258-9.107,9.03s4.076,9.03,9.107,9.03a9.03,9.03,0,1,0,0-18.059" transform="translate(-195.957 -639.12)" fill="#006996"/>
    <path id="Path_3871" data-name="Path 3871" d="M133.069,653.58c-2.481,0-4.488-2.06-4.488-5.472s2.01-5.472,4.488-5.472,4.488,2.1,4.488,5.472-2.01,5.472-4.488,5.472m-.033-14.46c-5.031,0-9.107,3.258-9.107,9.03s4.079,9.03,9.107,9.03a9.03,9.03,0,1,0,0-18.059" transform="translate(-103.066 -639.12)" fill="#006996"/>
    <path id="Path_3872" data-name="Path 3872" d="M68.956,639.25l-6.207,6.943h-.006l-6.207-6.943-2.985.033s.039,12.658.039,17.541v.418h4.138V646.863l5.01,5.312v.021l.009-.009.009.009v-.021l5.01-5.312v10.378H71.9v-.418c0-4.882.039-17.541.039-17.541Z" transform="translate(-53.55 -639.211)" fill="#006996"/>
  </g>
  <path id="Path_3873" data-name="Path 3873" d="M339.976,639.35H335.84l.012,10.417-8.33-10.417H324.54l.039,17.959h4.135V646.93l8.241,10.379h3.059Z" transform="translate(-228.333 -449.82)" fill="#006996"/>
  <path id="Path_3874" data-name="Path 3874" d="M205.013,650.651a4.451,4.451,0,0,1-4.539,3.071c-.528-.015-1.278-.089-1.805-.163V642.846a9.6,9.6,0,0,1,3.489.388,4.42,4.42,0,0,1,2.932,3.122,7.039,7.039,0,0,1-.08,4.3m1.257-9.859a10.229,10.229,0,0,0-5.318-1.47,34.233,34.233,0,0,0-3.931.2c-.928.089-1.838.32-2.748.486v16.622c1.319.187,2.623.412,3.934.549a14.877,14.877,0,0,0,6.213-.466,7.562,7.562,0,0,0,5.117-4.844,10.7,10.7,0,0,0,.219-6.2,7.621,7.621,0,0,0-3.489-4.877" transform="translate(-136.68 -449.797)" fill="#006996"/>
  <path id="Path_3875" data-name="Path 3875" d="M79.016,128.33v44.893l-24.836,12V140.291Z" transform="translate(-38.119 -90.288)" fill="#17b8e0"/>
  <path id="Path_3876" data-name="Path 3876" d="M354.43,180.67v35.784l6.72-3.2V183.91Z" transform="translate(-249.362 -127.112)" fill="#17b8e0"/>
  <path id="Path_3877" data-name="Path 3877" d="M171.55,0,153.34,11.941V36.163l12.694,6.1v71.819l5.517,1.627Z" transform="translate(-107.884)" fill="#006996"/>
  <path id="Path_3878" data-name="Path 3878" d="M279.92,106.119v15.154L273.3,118.1v41.718l-17.108-8.1V120.467l11.036-5.309V100.03Z" transform="translate(-180.245 -70.377)" fill="#84bc26"/>
  <path id="Path_3879" data-name="Path 3879" d="M223.4,429.007l24.536,10.269h36.969L235.738,423.84Z" transform="translate(-157.175 -298.196)" fill="#006996"/>
  <path id="Path_3880" data-name="Path 3880" d="M61.64,370.16H53.5l33.35,13.957,11.318-3.3Z" transform="translate(-37.64 -260.429)" fill="#17b8e0"/>
  <path id="Path_3881" data-name="Path 3881" d="M103.636,370.16,67.728,380.633l-3.91,1.141L51.91,385.246l-1.129.332L0,401.509H36.874L62.11,390.947l1.708-.714,11.908-4.986,3.35-1.4,32.7-13.684Z" transform="translate(0 -260.429)" fill="#84bc26"/>
  <path id="Path_3882" data-name="Path 3882" d="M199.422,542.656a8.7,8.7,0,0,1-.791-4.12,7.1,7.1,0,0,1,1.3-4.159,5.3,5.3,0,0,1,8.674.38,8.018,8.018,0,0,1,1.058,4.912,7.715,7.715,0,0,1-.854,3.21,4.96,4.96,0,0,1-4.675,2.8,5.034,5.034,0,0,1-4.708-3.018m9.039,6.673a9.639,9.639,0,0,0,6.151-6.059,12.824,12.824,0,0,0,.4-7.367,9.476,9.476,0,0,0-4.948-6.581,12.607,12.607,0,0,0-5.864-1.364,13.572,13.572,0,0,0-4.4.711,9.533,9.533,0,0,0-6.125,6.024,13.23,13.23,0,0,0-.631,2.677c0,.009-.015.021-.015.033a12.107,12.107,0,0,1-.294,2.051,4.175,4.175,0,0,1-.756,1.378,2.714,2.714,0,0,1-1,.735,3.122,3.122,0,0,1-1.109.278H177.133c-.086,0-.157-.006-.237,0H169.28V538.02a17.479,17.479,0,0,0-.492-4.257,7.024,7.024,0,0,0-1.7-3.213,8.351,8.351,0,0,0-3.376-2.137,15.9,15.9,0,0,0-4.773-.652h-6.6v5.2h7.387a4.448,4.448,0,0,1,1.876.392,3.535,3.535,0,0,1,1.346,1.022,4.058,4.058,0,0,1,.777,1.468,6.97,6.97,0,0,1,.246,1.95v4.052h-16.6v5.2h22.049v-.024h7.414c.1.009.19.024.3.024h11.36a12.053,12.053,0,0,0,1.509-.1,7.122,7.122,0,0,0,1.559-.371,6.321,6.321,0,0,0,1.464-.773,4.417,4.417,0,0,0,1.186-1.254,9.346,9.346,0,0,0,5.514,4.764,12.981,12.981,0,0,0,8.736.018" transform="translate(-103.683 -371.31)" fill="#006996"/>
  <rect id="Rectangle_809" data-name="Rectangle 809" width="5.229" height="5.128" transform="translate(24.925 151.322)" fill="#006996"/>
  <path id="Path_3883" data-name="Path 3883" d="M71.728,527.91v10.9a9.651,9.651,0,0,1-.362,2.843,3.97,3.97,0,0,1-1.233,1.912,5.472,5.472,0,0,1-2.463,1.115,12.177,12.177,0,0,1-2.377.261,11.934,11.934,0,0,1-2.377-.261,5.487,5.487,0,0,1-2.463-1.115,4,4,0,0,1-1.233-1.912,9.751,9.751,0,0,1-.362-2.843v-10.9H53.55v11.535a16.19,16.19,0,0,0,.569,4.328,6.986,6.986,0,0,0,1.971,3.362,10.52,10.52,0,0,0,1.841,1.393,10.034,10.034,0,0,0,2.14.949,14.326,14.326,0,0,0,2.558.539c.676.08,1.429.122,2.22.145,0,0,.293,0,.439,0s.445,0,.445,0c.791-.024,1.544-.062,2.22-.145a14.325,14.325,0,0,0,2.558-.539,10.193,10.193,0,0,0,2.143-.949,10.612,10.612,0,0,0,1.838-1.393,7.023,7.023,0,0,0,1.971-3.362,16.327,16.327,0,0,0,.566-4.328V527.91H71.725Z" transform="translate(-37.676 -371.415)" fill="#006996"/>
</svg>
