<svg xmlns="http://www.w3.org/2000/svg" width="12.311" height="13.68" viewBox="0 0 12.311 13.68">
  <path id="Path_2998" data-name="Path 2998" d="M211.488,393.218a.494.494,0,0,0-.488.5v.26a.5.5,0,0,0,.488.5h11.335a.5.5,0,0,0,.488-.5v-.26a.494.494,0,0,0-.488-.5h-1.994a.877.877,0,0,1-.849-.694l-.1-.466A1.36,1.36,0,0,0,218.568,391h-2.825a1.358,1.358,0,0,0-1.3,1.026l-.112.5a.876.876,0,0,1-.849.695Zm1.013,9.5c-.205-1.94-.572-6.55-.572-6.6a.506.506,0,0,1,.124-.382.5.5,0,0,1,.358-.16H221.9a.484.484,0,0,1,.358.16.54.54,0,0,1,.13.382c0,.009-.014.171-.036.443-.1,1.206-.367,4.565-.542,6.156a2,2,0,0,1-2,1.934c-.859.02-1.743.027-2.648.027-.852,0-1.717-.007-2.6-.027A2,2,0,0,1,212.5,402.719Z" transform="translate(-211 -391)" fill="#ed212b" fill-rule="evenodd"/>
</svg>
