 <svg id="شعار_الهيئة_السعودية_للمدن_الصناعية_ومناطق_التقنية_PNG_SVG"
          data-name="شعار الهيئة السعودية للمدن الصناعية ومناطق التقنية – PNG – SVG" xmlns="http://www.w3.org/2000/svg"
          width="42.518" height="69.079" viewBox="0 0 42.518 69.079">
          <g id="Group_2653" data-name="Group 2653" transform="translate(5.284 63.067)">
            <path id="Path_3870" data-name="Path 3870"
              d="M259,643.933c-.826,0-1.494-.686-1.494-1.821s.669-1.822,1.494-1.822a1.857,1.857,0,0,1,0,3.643m-.011-4.813a3.006,3.006,0,1,0,0,6.011,3.006,3.006,0,1,0,0-6.011"
              transform="translate(-235.987 -639.12)" fill="#f5f5f8" />
            <path id="Path_3871" data-name="Path 3871"
              d="M126.972,643.933c-.826,0-1.494-.686-1.494-1.821s.669-1.822,1.494-1.822a1.857,1.857,0,0,1,0,3.643m-.011-4.813a3.006,3.006,0,1,0,0,6.011,3.006,3.006,0,1,0,0-6.011"
              transform="translate(-116.985 -639.12)" fill="#f5f5f8" />
            <path id="Path_3872" data-name="Path 3872"
              d="M58.678,639.25l-2.066,2.311h0l-2.066-2.311-.994.011s.013,4.214.013,5.839v.139H54.94v-3.455l1.668,1.768v.007l0,0,0,0v-.007l1.668-1.768v3.455h1.378V645.1c0-1.625.013-5.839.013-5.839Z"
              transform="translate(-53.55 -639.237)" fill="#f5f5f8" />
          </g>
          <path id="Path_3873" data-name="Path 3873"
            d="M329.678,639.35H328.3l0,3.468-2.773-3.468h-.993l.013,5.978h1.377v-3.455l2.743,3.455h1.018Z"
            transform="translate(-292.515 -576.26)" fill="#f5f5f8" />
          <path id="Path_3874" data-name="Path 3874"
            d="M197.846,643.09a1.482,1.482,0,0,1-1.511,1.022c-.176,0-.425-.03-.6-.054v-3.566a3.2,3.2,0,0,1,1.161.129,1.471,1.471,0,0,1,.976,1.039,2.343,2.343,0,0,1-.027,1.43m.418-3.282a3.4,3.4,0,0,0-1.77-.489,11.4,11.4,0,0,0-1.308.066c-.309.03-.612.107-.915.162v5.533c.439.062.873.137,1.309.183a4.951,4.951,0,0,0,2.068-.155,2.517,2.517,0,0,0,1.7-1.612,3.56,3.56,0,0,0,.073-2.063,2.536,2.536,0,0,0-1.161-1.623"
            transform="translate(-175.1 -576.231)" fill="#f5f5f8" />
          <path id="Path_3875" data-name="Path 3875" d="M62.447,128.33v14.944l-8.267,3.995V132.312Z"
            transform="translate(-48.834 -115.667)" fill="#f5f5f8" />
          <path id="Path_3876" data-name="Path 3876" d="M354.43,180.67v11.911l2.237-1.067v-9.766Z"
            transform="translate(-319.455 -162.842)" fill="#f5f5f8" />
          <path id="Path_3877" data-name="Path 3877" d="M159.4,0,153.34,3.975v8.063l4.225,2.032V37.976l1.836.542Z"
            transform="translate(-138.209)" fill="#f5f5f8" />
          <path id="Path_3878" data-name="Path 3878"
            d="M264.089,102.057V107.1l-2.2-1.058V119.93l-5.695-2.7v-10.4l3.674-1.767V100.03Z"
            transform="translate(-230.91 -90.159)" fill="#f5f5f8" />
          <path id="Path_3879" data-name="Path 3879" d="M223.4,425.56l8.168,3.418h12.306l-16.367-5.138Z"
            transform="translate(-201.355 -382.016)" fill="#f5f5f8" />
          <path id="Path_3880" data-name="Path 3880" d="M56.21,370.16H53.5l11.1,4.646,3.768-1.1Z"
            transform="translate(-48.221 -333.633)" fill="#f5f5f8" />
          <path id="Path_3881" data-name="Path 3881"
            d="M34.5,370.16l-11.953,3.486-1.3.38-3.964,1.156-.376.111L0,380.6H12.275l8.4-3.516.568-.238,3.964-1.66,1.115-.467,10.885-4.555Z"
            transform="translate(0 -333.633)" fill="#f5f5f8" />
          <path id="Path_3882" data-name="Path 3882"
            d="M164.7,532.719a2.9,2.9,0,0,1-.263-1.372,2.362,2.362,0,0,1,.431-1.384,1.765,1.765,0,0,1,2.887.126,2.669,2.669,0,0,1,.352,1.635,2.568,2.568,0,0,1-.284,1.069,1.651,1.651,0,0,1-1.556.931,1.676,1.676,0,0,1-1.567-1m3.009,2.221a3.209,3.209,0,0,0,2.048-2.017,4.269,4.269,0,0,0,.132-2.452,3.154,3.154,0,0,0-1.647-2.191,4.2,4.2,0,0,0-1.952-.454,4.519,4.519,0,0,0-1.465.237,3.173,3.173,0,0,0-2.039,2.005,4.405,4.405,0,0,0-.21.891s0,.007,0,.011a4.03,4.03,0,0,1-.1.683,1.39,1.39,0,0,1-.252.459.9.9,0,0,1-.334.245,1.038,1.038,0,0,1-.369.093h-4.238c-.029,0-.052,0-.079,0h-2.535v-1.274a5.818,5.818,0,0,0-.164-1.417,2.339,2.339,0,0,0-.567-1.07,2.78,2.78,0,0,0-1.124-.711,5.294,5.294,0,0,0-1.589-.217h-2.2v1.732h2.459a1.481,1.481,0,0,1,.625.13,1.178,1.178,0,0,1,.448.34,1.351,1.351,0,0,1,.259.488,2.321,2.321,0,0,1,.082.649v1.349H147.37v1.731h7.34v-.008h2.468c.033,0,.063.008.1.008h3.781a4.017,4.017,0,0,0,.5-.034,2.374,2.374,0,0,0,.519-.123,2.107,2.107,0,0,0,.487-.258,1.47,1.47,0,0,0,.395-.417,3.111,3.111,0,0,0,1.835,1.586,4.321,4.321,0,0,0,2.908.006"
            transform="translate(-132.828 -475.682)" fill="#f5f5f8" />
          <rect id="Rectangle_809" data-name="Rectangle 809" width="1.741" height="1.707"
            transform="translate(8.297 50.371)" fill="#f5f5f8" />
          <path id="Path_3883" data-name="Path 3883"
            d="M59.6,527.91v3.629a3.212,3.212,0,0,1-.12.946,1.322,1.322,0,0,1-.411.637,1.822,1.822,0,0,1-.82.371,4.051,4.051,0,0,1-.791.087,3.969,3.969,0,0,1-.791-.087,1.827,1.827,0,0,1-.82-.371,1.331,1.331,0,0,1-.411-.637,3.246,3.246,0,0,1-.12-.946V527.91H53.55v3.84a5.389,5.389,0,0,0,.189,1.441,2.325,2.325,0,0,0,.656,1.119,3.5,3.5,0,0,0,.613.464,3.341,3.341,0,0,0,.712.316,4.771,4.771,0,0,0,.852.18c.225.027.476.04.739.048h.294c.263-.008.514-.021.739-.048a4.77,4.77,0,0,0,.852-.18,3.394,3.394,0,0,0,.713-.316,3.533,3.533,0,0,0,.612-.464,2.337,2.337,0,0,0,.656-1.119,5.434,5.434,0,0,0,.188-1.441v-3.84H59.6Z"
            transform="translate(-48.266 -475.817)" fill="#f5f5f8" />
        </svg>