<svg xmlns="http://www.w3.org/2000/svg" width="40" height="31" viewBox="0 0 40 31">
  <g id="Group_3880" data-name="Group 3880" transform="translate(-113 -392)">
    <g id="Group_3872" data-name="Group 3872" transform="translate(113 391.943)">
      <rect id="Rectangle_379" data-name="Rectangle 379" width="40" height="31" rx="10" transform="translate(0 0.057)" fill="#0080b7" opacity="0.08"/>
    </g>
    <g id="_57-Resume" data-name="57-Resume" transform="translate(126.219 399.154)">
      <path id="Path_351" data-name="Path 351" d="M8.082,6.769A1.82,1.82,0,0,0,9.932,4.981V2h6.781a1.82,1.82,0,0,1,1.849,1.788V16.9a1.82,1.82,0,0,1-1.849,1.788H6.849A1.82,1.82,0,0,1,5,16.9V6.769Zm5.548-1.788A1.789,1.789,0,1,0,15.48,6.769a1.82,1.82,0,0,0-1.849-1.788ZM16.1,10.942a1.82,1.82,0,0,0-1.849-1.788H13.014a1.82,1.82,0,0,0-1.849,1.788v1.192a.607.607,0,0,0,.616.6h3.7a.607.607,0,0,0,.616-.6ZM8.082,15.711h7.4a.6.6,0,1,0,0-1.192h-7.4a.6.6,0,1,0,0,1.192Zm0-2.981H9.315a.6.6,0,1,0,0-1.192H8.082a.6.6,0,1,0,0,1.192Zm0-2.981H9.315a.6.6,0,1,0,0-1.192H8.082a.6.6,0,1,0,0,1.192ZM8.7,4.981V2.346L5.358,5.577H8.082A.607.607,0,0,0,8.7,4.981Z" transform="translate(-5 -2)" fill="#006996"/>
    </g>
  </g>
</svg>
