<svg xmlns="http://www.w3.org/2000/svg" width="40" height="31" viewBox="0 0 40 31">
  <g id="Group_3879" data-name="Group 3879" transform="translate(-56 -392)">
    <g id="Group_3871" data-name="Group 3871" transform="translate(56 391.677)">
      <rect id="Rectangle_379" data-name="Rectangle 379" width="40" height="31" rx="10" transform="translate(0 0.323)" fill="#84bc26" opacity="0.08"/>
    </g>
    <g id="_0000" data-name="0000" transform="translate(67.654 399.154)">
      <g id="Group_3870" data-name="Group 3870" transform="translate(0 0)">
        <g id="Group_3869" data-name="Group 3869" transform="translate(0 0)">
          <g id="Group_3868" data-name="Group 3868">
            <path id="Path_4135" data-name="Path 4135" d="M12.983,16.692H3.709A3.709,3.709,0,0,1,0,12.983v-.927a.927.927,0,1,1,1.855,0v.927a1.855,1.855,0,0,0,1.855,1.855h9.273a1.855,1.855,0,0,0,1.855-1.855v-.927a.927.927,0,1,1,1.855,0v.927a3.71,3.71,0,0,1-3.709,3.709ZM8.346,12.983a.925.925,0,0,1-.648-.264h0l0,0h0l0,0L3.981,9A.927.927,0,0,1,5.292,7.69L7.419,9.817V.927a.927.927,0,1,1,1.855,0V9.817L11.4,7.69A.927.927,0,0,1,12.711,9L9,12.711l0,0H9l0,0h0l-.031.029a.921.921,0,0,1-.256.162h0a.923.923,0,0,1-.359.072Z" transform="translate(0 0)" fill="#84bc26"/>
          </g>
        </g>
      </g>
    </g>
  </g>
</svg>
