<svg id="Group_632" data-name="Group 632" xmlns="http://www.w3.org/2000/svg" width="40" height="50.87" viewBox="0 0 40 50.87">
  <path id="Path_277" data-name="Path 277" d="M12.7,13.21a10.71,10.71,0,1,1,10.71,10.71A10.707,10.707,0,0,1,12.7,13.21Zm12.155,0V7.426a1.446,1.446,0,1,0-2.892,0v4.391H19.126a1.446,1.446,0,1,0,0,2.892H23.41A1.522,1.522,0,0,0,24.855,13.21Z" transform="translate(5.881 -2.5)" fill="#f36e32"/>
  <path id="Path_278" data-name="Path 278" d="M79.832,24.8v8.032H71.8Z" transform="translate(-71.479 -12.859)" fill="#6a1244"/>
  <path id="Path_279" data-name="Path 279" d="M38.8,35.445A1.44,1.44,0,0,0,40.245,34V24.2h4.5A13.625,13.625,0,0,0,58.291,36.891a12.358,12.358,0,0,0,1.981-.161V60.612a2.822,2.822,0,0,1-2.838,2.838h-25.6A2.857,2.857,0,0,1,29,60.612V35.445h9.8Zm-1.981,22.49H52.454a1.446,1.446,0,1,0,0-2.892H36.818a1.446,1.446,0,1,0,0,2.892Zm0-7.336H52.454a1.446,1.446,0,1,0,0-2.892H36.818a1.446,1.446,0,1,0,0,2.892Zm0-7.282H52.454a1.446,1.446,0,0,0,0-2.892H36.818a1.446,1.446,0,0,0,0,2.892Z" transform="translate(-29 -12.58)" fill="#6a1244"/>
</svg>
