<svg xmlns="http://www.w3.org/2000/svg" width="27" height="31" viewBox="0 0 27 31">
  <g id="Group_655" data-name="Group 655" transform="translate(0 0)">
    <path id="Path_283" data-name="Path 283" d="M3,18.483A13.5,13.5,0,1,0,16.5,5.018,13.483,13.483,0,0,0,3,18.483Zm9.435,1.93L15,17.87V12.5a1.5,1.5,0,0,1,3,0v5.985a1.494,1.494,0,0,1-.435,1.062l-3,2.992a1.5,1.5,0,1,1-2.13-2.125Z" transform="translate(-3 -0.949)" fill="#f36e32"/>
    <path id="Path_284" data-name="Path 284" d="M11.325,4.763A1.5,1.5,0,1,0,9.675,2.28l-4.5,2.992A1.5,1.5,0,0,0,6,8.01a1.413,1.413,0,0,0,.825-.254ZM27,8.01a1.413,1.413,0,0,1-.825-.254l-4.5-2.992a1.5,1.5,0,1,1,1.65-2.484l4.5,2.992A1.5,1.5,0,0,1,27,8.01Z" transform="translate(-3 -1.949)" fill="#6a1244"/>
  </g>
</svg>
