<svg id="Login" xmlns="http://www.w3.org/2000/svg" width="28" height="30" viewBox="0 0 28 30">
  <path id="Path_280" data-name="Path 280" d="M28.228,8.669A6.726,6.726,0,0,0,21.462,2H14.046A6.71,6.71,0,0,0,7.3,8.654V25.328A6.727,6.727,0,0,0,14.061,32h7.416a6.713,6.713,0,0,0,6.751-6.657V8.669Z" transform="translate(-7.296 -2)" fill="#6a1244"/>
  <path id="Path_281" data-name="Path 281" d="M2.84,13.021,7.214,8.657a1.154,1.154,0,0,1,1.627,1.637L6.446,12.683H21.637a1.155,1.155,0,0,1,0,2.31H6.446l2.395,2.391a1.154,1.154,0,1,1-1.627,1.637L2.84,14.657a1.155,1.155,0,0,1,0-1.636Z" transform="translate(5.21 1.16)" fill="#f36e32"/>
</svg>
