<svg xmlns="http://www.w3.org/2000/svg" width="20.596" height="18.72" viewBox="0 0 20.596 18.72">
                                    <g id="check" transform="translate(0 -36.401)">
                                      <g id="Group_3946" data-name="Group 3946" transform="translate(0 36.401)">
                                        <path id="Path_4144" data-name="Path 4144" d="M18.454,46.678a.352.352,0,0,0-.16-.04.419.419,0,0,0-.306.133l-.851.851a.4.4,0,0,0-.119.293v3.377a2.133,2.133,0,0,1-2.127,2.127H3.829a2.048,2.048,0,0,1-1.5-.625,2.048,2.048,0,0,1-.625-1.5V40.23a2.048,2.048,0,0,1,.625-1.5,2.048,2.048,0,0,1,1.5-.625H14.891a2.362,2.362,0,0,1,.6.08.427.427,0,0,0,.119.027.42.42,0,0,0,.306-.133l.651-.651a.413.413,0,0,0,.119-.385.4.4,0,0,0-.239-.306A3.66,3.66,0,0,0,14.89,36.4H3.829a3.688,3.688,0,0,0-2.706,1.123A3.688,3.688,0,0,0,0,40.23V51.292A3.688,3.688,0,0,0,1.123,54a3.688,3.688,0,0,0,2.706,1.124H14.89a3.837,3.837,0,0,0,3.829-3.829V47.064A.386.386,0,0,0,18.454,46.678Z" transform="translate(0 -36.401)" fill="#dfdfdf"/>
                                        <path id="Path_4145" data-name="Path 4145" d="M89.8,56.549l-1.308-1.308a.947.947,0,0,0-1.355,0l-7.691,7.691-3.126-3.126a.947.947,0,0,0-1.355,0l-1.308,1.308a.947.947,0,0,0,0,1.355l5.111,5.111a.947.947,0,0,0,1.355,0L89.8,57.9a.947.947,0,0,0,0-1.355Z" transform="translate(-69.491 -52.606)" fill="#dfdfdf"/>
                                      </g>
                                    </g>
                                  </svg>